<svg id="Layer_1" data-name="Layer 1" xmlns="http://www.w3.org/2000/svg" viewBox="0 0 122.88 122.88"><defs><style>.cls-1{fill-rule:evenodd;}</style></defs><title>bearing</title><path class="cls-1" d="M61.44,0A61.44,61.44,0,1,1,0,61.44,61.44,61.44,0,0,1,61.44,0Zm0,40.51a20.93,20.93,0,1,1-14.8,6.13,20.86,20.86,0,0,1,14.8-6.13Zm8.35,12.58a11.81,11.81,0,1,0,3.46,8.35,11.75,11.75,0,0,0-3.46-8.35Zm-.46-23.34a32.46,32.46,0,0,1,8.94,3.7A11.13,11.13,0,0,1,89.41,22.32a11.24,11.24,0,0,1,3.14.45A49.39,49.39,0,0,0,66.78,12.09,11.28,11.28,0,0,1,69.32,14a11.13,11.13,0,0,1,0,15.75Zm20.1,14.86a32.46,32.46,0,0,1,3.7,8.94,11.13,11.13,0,0,1,15.75,0,11.28,11.28,0,0,1,1.91,2.54,49.32,49.32,0,0,0-10.68-25.76A11.14,11.14,0,0,1,89.43,44.61Zm3.7,24.72a32.46,32.46,0,0,1-3.7,8.94,11.13,11.13,0,0,1,11.13,11.14,11.24,11.24,0,0,1-.45,3.14,49.39,49.39,0,0,0,10.68-25.77,11.28,11.28,0,0,1-1.91,2.54,11.13,11.13,0,0,1-15.75,0ZM78.27,89.43a32.46,32.46,0,0,1-8.94,3.7,11.13,11.13,0,0,1,0,15.75,11.28,11.28,0,0,1-2.54,1.91,49.32,49.32,0,0,0,25.76-10.68A11.14,11.14,0,0,1,78.27,89.43Zm-24.72,3.7a32.46,32.46,0,0,1-8.94-3.7,11.13,11.13,0,0,1-11.14,11.13,11.24,11.24,0,0,1-3.14-.45A49.39,49.39,0,0,0,56.1,110.79a11.14,11.14,0,0,1-2.55-17.66ZM33.45,78.27a32.46,32.46,0,0,1-3.7-8.94,11.13,11.13,0,0,1-15.75,0,11,11,0,0,1-1.91-2.54A49.39,49.39,0,0,0,22.76,92.54a11.49,11.49,0,0,1-.44-3.13A11.13,11.13,0,0,1,33.45,78.27Zm-3.7-24.72a32.46,32.46,0,0,1,3.7-8.94A11.14,11.14,0,0,1,22.77,30.34,49.32,49.32,0,0,0,12.09,56.1a11.21,11.21,0,0,1,9.79-5.81,11.12,11.12,0,0,1,7.87,3.26Zm14.86-20.1a32.46,32.46,0,0,1,8.94-3.7,11.13,11.13,0,0,1,0-15.75,11,11,0,0,1,2.54-1.91A49.32,49.32,0,0,0,30.34,22.77,11.13,11.13,0,0,1,44.61,33.45ZM81.3,41.58a28.08,28.08,0,1,0,8.23,19.86A28,28,0,0,0,81.3,41.58ZM21.88,54.86a6.57,6.57,0,1,0,4.65,1.92,6.59,6.59,0,0,0-4.65-1.92Zm6.93,29.9a6.58,6.58,0,1,0,4.66-1.93,6.57,6.57,0,0,0-4.66,1.93ZM54.86,101a6.57,6.57,0,1,0,1.92-4.65A6.59,6.59,0,0,0,54.86,101Zm29.9-6.93a6.58,6.58,0,1,0-1.93-4.66,6.57,6.57,0,0,0,1.93,4.66ZM101,68a6.57,6.57,0,1,0-4.65-1.92A6.59,6.59,0,0,0,101,68Zm-6.93-29.9a6.58,6.58,0,1,0-4.66,1.93,6.57,6.57,0,0,0,4.66-1.93ZM68,21.88a6.57,6.57,0,1,0-1.92,4.65A6.59,6.59,0,0,0,68,21.88Zm-29.9,6.93a6.58,6.58,0,1,0,1.93,4.66,6.57,6.57,0,0,0-1.93-4.66Z"/></svg>